<svg width="184" height="51" viewBox="0 0 184 51" fill="none" xmlns="http://www.w3.org/2000/svg">
<path fill-rule="evenodd" clip-rule="evenodd" d="M-0.00195312 7.36378H10.3522L17.0979 25.9059L24.1647 7.36378H34.1978L17.0418 50.3005H7.11924L12.1936 36.9965L-0.00195312 7.36378ZM116.318 6.70738C125.377 6.70738 131.982 13.7156 131.982 23.3092C131.982 32.9027 125.377 39.9109 116.318 39.9109C112.975 39.9109 110.159 39.0287 108.011 37.3277L107.872 37.2156L107.753 37.1168L107.753 50.2902H98.0854L98.0857 7.36378H106.634L106.634 10.5738L106.682 10.5186C108.789 8.12276 111.975 6.79688 115.911 6.71175L116.119 6.70842L116.318 6.70738ZM114.869 15.3614C110.514 15.3614 107.556 18.5755 107.556 23.3092C107.556 28.0428 110.514 31.2569 114.869 31.2569C119.281 31.2569 122.248 28.0524 122.248 23.3092C122.248 18.5659 119.281 15.3614 114.869 15.3614ZM51.8057 6.70738C61.7812 6.70738 68.8524 13.5787 68.8524 23.3092C68.8524 32.9968 61.7577 39.9109 51.8057 39.9109C41.7979 39.9109 34.6931 33.0065 34.6931 23.3092C34.6931 13.569 41.7743 6.70738 51.8057 6.70738ZM51.8057 15.3614C47.4352 15.3614 44.4266 18.5918 44.4266 23.3092C44.4266 28.0265 47.4352 31.2569 51.8057 31.2569C56.1192 31.2569 59.119 28.0169 59.119 23.3092C59.119 18.6015 56.1192 15.3614 51.8057 15.3614ZM84.9571 0.300537L84.9569 7.36378H92.9122V15.6896L84.9569 15.6894L84.9571 27.1819C84.9571 29.7527 86.2104 31.1669 88.4912 31.2527L88.6024 31.2559L88.7151 31.2569C90.262 31.2569 91.4337 30.8517 92.4819 29.8474L92.5798 29.7514L92.8403 29.4846H92.9122V38.6685L92.6158 38.8098C91.0251 39.5683 90.0437 39.9109 87.3325 39.9109C79.6669 39.9109 75.4575 35.7501 75.2944 27.9825L75.2907 27.746L75.2895 27.5101L75.2892 15.6894L71.7908 15.6896V7.36378H75.5527L75.5528 0.300537H84.9571ZM153.107 6.70738C163.083 6.70738 170.154 13.5787 170.154 23.3092C170.154 32.9968 163.059 39.9109 153.107 39.9109C143.1 39.9109 135.995 33.0065 135.995 23.3092C135.995 13.569 143.076 6.70738 153.107 6.70738ZM153.107 15.3614C148.737 15.3614 145.728 18.5918 145.728 23.3092C145.728 28.0265 148.737 31.2569 153.107 31.2569C157.421 31.2569 160.421 28.0169 160.421 23.3092C160.421 18.6015 157.421 15.3614 153.107 15.3614ZM178.034 39.9109C180.96 39.9109 183.331 37.5463 183.331 34.6294C183.331 31.7125 180.96 29.3479 178.034 29.3479C175.108 29.3479 172.737 31.7125 172.737 34.6294C172.737 37.5463 175.108 39.9109 178.034 39.9109Z" fill="#313438"/>
</svg>
